<svg xmlns="http://www.w3.org/2000/svg" viewBox="0 0 64 64" width="64" height="64">
  <defs>
    <linearGradient id="bg" x1="0%" y1="0%" x2="100%" y2="100%">
      <stop offset="0%" style="stop-color:#9b2fbe"/>
      <stop offset="50%" style="stop-color:#c471ed"/>
      <stop offset="100%" style="stop-color:#e056a0"/>
    </linearGradient>
  </defs>
  <!-- Rounded square background -->
  <rect x="4" y="4" width="56" height="56" rx="14" ry="14" fill="url(#bg)"/>
  <!-- Shopping bag icon -->
  <path d="M22 22 L22 18 C22 14.686 24.686 12 28 12 L36 12 C39.314 12 42 14.686 42 18 L42 22" 
        fill="none" stroke="white" stroke-width="3" stroke-linecap="round" stroke-linejoin="round"/>
  <path d="M16 24 L16 52 L48 52 L48 24 Z" 
        fill="none" stroke="white" stroke-width="3" stroke-linejoin="round"/>
  <!-- Bag handles -->
  <path d="M28 24 L28 20 C28 18.895 28.895 18 30 18 L34 18 C35.105 18 36 18.895 36 20 L36 24" 
        fill="none" stroke="white" stroke-width="2" stroke-linecap="round"/>
  <!-- "O" letter accent inside bag -->
  <text x="32" y="42" font-family="Arial, Helvetica, sans-serif" font-size="18" font-weight="bold" 
        fill="white" text-anchor="middle" dominant-baseline="middle">O</text>
</svg>
